PathFileType   4   (X/Y/Z)
DataRate	CameraRate	NumFrames	NumMarkers	Units	OrigDataRate	OrigDataStartFrame	OrigNumFrames
120.0	120.0	10	37	mm	120.0	1	168
Frame#	Time	midhip	hip_r	hip_l	knee_r	knee_l	ankle_r	ankle_l	midasis	asis_r	asis_l	psis_r	psis_l	epicondLat_r	epicondLat_l	epicondMed_r	epicondMed_l	malleolusLat_r	malleolusLat_l	malleolusMedv_r	malleolusMedv_l	neck	subclavicle_r	subclavicle_l	sternalnotch	xyphoidprocess	thighwand_r	thighwand_l	upperleg1_r	upperleg1_l	upperleg2_r	upperleg2_l	shankwand_r	shankwand_l	lowerleg1_r	lowerleg1_l	toe_r	toe_l
 	 	X1	Y1	Z1	X2	Y2	Z2	X3	Y3	Z3	X4	Y4	Z4	X5	Y5	Z5	X6	Y6	Z6	X7	Y7	Z7	X8	Y8	Z8	X9	Y9	Z9	X10	Y10	Z10	X11	Y11	Z11	X12	Y12	Z12	X13	Y13	Z13	X14	Y14	Z14	X15	Y15	Z15	X16	Y16	Z16	X17	Y17	Z17	X18	Y18	Z18	X19	Y19	Z19	X20	Y20	Z20	X21	Y21	Z21	X22	Y22	Z22	X23	Y23	Z23	X24	Y24	Z24	X25	Y25	Z25	X26	Y26	Z26	X27	Y27	Z27	X28	Y28	Z28	X29	Y29	Z29	X30	Y30	Z30	X31	Y31	Z31	X32	Y32	Z32	X33	Y33	Z33	X34	Y34	Z34	X35	Y35	Z35	X36	Y36	Z36	X37	Y37	Z37

	1	0.28333	133.841	826.775	-306.253	115.318	799.083	-234.529	119.672	809.187	-386.258	106.274	426.485	-194.647	174.941	431.783	-364.179	-169.395	176.537	-220.075	178.642	68.783	-334.979	205.273	880.478	-299.743	197.984	872.365	-181.514	212.562	888.591	-417.972	5.228	933.429	-276.975	5.817	931.562	-331.707	104.493	432.698	-137.009	185.257	429.957	-421.225	130.025	420.044	-255.362	182.683	443.893	-305.135	-185.643	191.044	-186.526	167.760	65.586	-373.337	-149.755	172.236	-249.145	189.513	78.339	-310.721	55.666	1375.996	-301.623	180.697	1315.413	-247.796	182.169	1311.577	-354.181	177.669	1310.266	-300.331	218.323	1241.048	-301.158	280.509	560.888	-208.817	210.634	560.892	-514.540	210.632	616.105	-163.808	143.133	606.919	-461.347	199.117	528.890	-158.448	159.381	522.738	-445.022	-144.095	259.881	-113.227	268.765	198.617	-332.214	-130.272	258.586	-153.595	227.824	193.362	-343.022	-165.090	73.477	-196.830	288.736	42.476	-365.012
	2	0.29167	138.231	826.617	-307.157	120.060	799.292	-235.309	124.168	809.264	-387.054	118.242	426.559	-194.157	177.623	431.851	-364.656	-159.218	179.843	-220.513	178.611	68.755	-334.959	209.976	880.554	-300.742	202.879	872.549	-182.522	217.073	888.559	-418.961	10.011	933.608	-277.649	10.564	931.855	-332.367	116.573	432.929	-136.532	187.819	429.909	-421.720	141.018	419.939	-254.553	186.429	445.179	-304.699	-175.135	194.133	-186.713	167.825	65.586	-373.347	-139.516	174.619	-249.151	189.574	78.304	-310.700	60.956	1376.392	-303.102	186.009	1315.769	-248.684	187.167	1311.743	-354.794	183.059	1310.495	-301.212	223.369	1241.253	-301.879	289.999	563.543	-209.397	213.619	560.668	-515.189	219.826	617.740	-164.791	146.485	607.181	-462.199	209.180	530.091	-158.673	162.800	522.613	-445.116	-132.751	261.588	-113.019	269.742	198.147	-332.089	-118.337	260.346	-153.333	228.949	192.680	-342.859	-157.146	76.043	-196.861	288.780	42.492	-364.967
	3	0.30000	142.540	826.392	-308.119	124.692	799.507	-236.068	128.548	809.369	-387.827	130.254	426.746	-193.818	180.163	431.871	-365.078	-148.685	182.945	-221.041	178.588	68.734	-334.937	214.548	880.665	-301.712	207.650	872.751	-183.510	221.447	888.579	-419.914	14.729	933.746	-278.204	15.194	932.128	-332.921	128.695	433.253	-136.206	190.310	429.819	-422.147	151.219	420.180	-253.184	190.459	446.840	-303.876	-164.282	196.989	-186.990	167.876	65.592	-373.348	-129.346	178.078	-250.191	189.521	78.412	-310.696	66.371	1376.814	-304.005	191.331	1316.330	-249.426	192.600	1311.891	-355.559	188.352	1310.720	-302.067	228.708	1241.588	-302.313	299.477	566.308	-210.080	216.649	560.437	-515.726	229.069	619.456	-165.460	149.928	607.248	-463.175	219.053	531.418	-158.547	166.452	522.383	-445.056	-121.142	263.092	-112.931	270.676	197.684	-331.998	-107.157	262.276	-153.486	229.972	192.248	-342.191	-148.525	78.483	-196.838	288.841	42.537	-364.900
	4	0.30833	147.120	826.545	-309.225	129.300	799.743	-236.808	132.889	809.497	-388.580	142.318	427.062	-193.657	182.544	431.837	-365.468	-137.780	185.806	-221.635	178.594	68.724	-334.912	219.056	880.837	-302.668	212.368	873.011	-184.494	225.744	888.663	-420.843	19.379	933.849	-278.671	19.719	932.375	-333.388	140.866	433.681	-136.054	192.693	429.679	-422.533	163.113	420.711	-253.006	193.912	447.101	-304.535	-153.080	199.593	-187.344	167.922	65.607	-373.336	-119.822	183.730	-252.535	189.390	78.652	-310.633	71.997	1377.142	-304.655	196.555	1316.417	-250.556	198.189	1311.883	-356.382	193.540	1310.940	-302.905	233.944	1241.543	-303.088	308.915	569.182	-210.873	219.683	560.210	-516.172	238.057	620.909	-165.406	153.148	607.562	-463.708	229.793	533.166	-158.701	169.686	522.709	-445.651	-109.289	264.425	-112.960	271.573	197.213	-331.975	-97.519	264.608	-153.678	230.738	192.262	-341.858	-139.181	80.771	-196.756	288.921	42.606	-364.805
	5	0.31667	151.487	826.533	-310.402	133.937	800.007	-237.547	137.257	809.645	-389.332	154.424	427.519	-193.667	184.748	431.763	-365.842	-126.512	188.395	-222.271	178.636	68.726	-334.884	223.549	881.082	-303.626	217.073	873.347	-185.482	230.025	888.817	-421.770	23.959	933.918	-279.096	24.155	932.591	-333.797	153.081	434.229	-136.072	194.930	429.496	-422.896	174.847	421.853	-253.890	196.946	446.752	-305.384	-141.545	201.928	-187.762	167.967	65.628	-373.310	-107.427	183.622	-251.810	189.380	78.756	-310.401	77.399	1377.548	-305.521	201.385	1316.423	-251.848	203.323	1312.079	-357.373	198.639	1311.157	-303.730	238.696	1241.528	-304.242	318.264	572.167	-211.787	222.676	559.997	-516.560	246.655	622.680	-165.298	156.296	607.915	-464.085	240.074	534.918	-159.201	172.756	522.650	-446.222	-97.216	265.614	-113.090	272.436	196.724	-332.035	-83.439	265.337	-153.749	231.163	192.410	-342.226	-129.063	82.886	-196.610	289.018	42.693	-364.682
	6	0.32500	155.531	826.233	-311.530	138.635	800.294	-238.294	141.700	809.810	-390.093	166.542	428.125	-193.819	186.769	431.674	-366.204	-114.905	190.681	-222.934	178.710	68.737	-334.852	228.064	881.397	-304.586	221.791	873.757	-186.473	234.338	889.037	-422.699	28.468	933.964	-279.519	28.516	932.774	-334.177	165.317	434.915	-136.231	196.996	429.289	-423.245	185.010	422.878	-253.335	198.531	445.785	-306.130	-129.709	203.973	-188.233	168.007	65.656	-373.270	-96.159	186.121	-252.706	189.574	78.738	-310.163	82.616	1378.066	-306.454	206.224	1316.843	-252.519	208.381	1312.533	-358.302	203.697	1311.387	-304.537	243.545	1241.916	-305.001	327.466	575.272	-212.836	225.596	559.803	-516.919	255.364	624.687	-165.776	159.812	607.927	-464.272	249.675	536.851	-159.371	175.320	522.493	-446.720	-84.955	266.682	-113.302	273.253	196.214	-332.174	-71.219	266.831	-154.135	231.597	192.089	-342.840	-118.123	84.811	-196.402	289.123	42.780	-364.533
	7	0.33333	159.706	826.167	-312.450	143.377	800.599	-239.038	146.186	809.978	-390.850	178.624	428.888	-194.069	188.600	431.596	-366.554	-102.990	192.637	-223.616	178.803	68.753	-334.815	232.589	881.763	-305.548	226.515	874.226	-187.451	238.662	889.300	-423.645	32.905	933.991	-279.955	32.814	932.926	-334.550	177.542	435.752	-136.487	198.883	429.087	-423.580	196.434	423.055	-252.458	200.236	445.176	-306.935	-117.612	205.706	-188.753	168.038	65.684	-373.217	-84.992	189.285	-254.153	189.931	78.660	-310.158	87.995	1378.301	-307.323	211.095	1317.091	-252.603	213.479	1312.656	-359.037	208.739	1311.648	-305.307	248.410	1242.042	-305.270	336.468	578.496	-214.021	228.432	559.621	-517.261	263.447	626.616	-166.327	162.922	607.414	-464.693	259.546	538.699	-159.494	177.786	522.843	-447.506	-72.544	267.644	-113.589	274.013	195.687	-332.370	-59.875	268.270	-154.635	232.632	191.693	-343.276	-106.330	86.532	-196.149	289.220	42.853	-364.369
	8	0.34167	163.617	825.806	-313.244	148.149	800.912	-239.752	150.680	810.128	-391.579	190.623	429.799	-194.366	190.251	431.548	-366.889	-90.765	194.216	-224.310	178.895	68.768	-334.769	237.110	882.150	-306.506	231.254	874.735	-188.400	242.966	889.565	-424.613	37.277	934.006	-280.403	37.063	933.044	-334.929	189.722	436.737	-136.790	200.604	428.912	-423.897	209.819	422.656	-252.875	202.603	446.583	-306.304	-105.268	207.091	-189.326	168.056	65.709	-373.151	-72.442	190.242	-254.511	190.098	78.557	-310.193	93.120	1378.464	-308.086	215.891	1317.025	-253.233	218.273	1312.879	-359.780	213.768	1311.930	-306.021	253.085	1242.061	-306.158	345.235	581.837	-215.338	231.200	559.440	-517.582	270.211	628.050	-166.647	165.685	607.134	-465.740	269.461	540.421	-160.051	180.504	522.950	-447.721	-60.028	268.499	-113.949	274.708	195.156	-332.586	-47.118	268.901	-154.888	234.003	191.535	-343.424	-93.674	88.029	-195.877	289.299	42.900	-364.204
	9	0.35000	167.745	825.717	-314.053	152.908	801.226	-240.425	155.143	810.239	-392.269	202.488	430.836	-194.670	191.750	431.542	-367.208	-78.232	195.383	-225.013	178.967	68.780	-334.717	241.603	882.530	-307.454	235.977	875.263	-189.306	247.229	889.796	-425.601	41.597	934.013	-280.848	41.273	933.122	-335.317	201.805	437.857	-137.101	202.197	428.781	-424.192	222.213	422.709	-253.388	204.639	447.514	-305.894	-92.689	208.100	-189.952	168.057	65.728	-373.079	-59.479	190.344	-254.651	190.060	78.461	-310.035	97.783	1379.073	-308.769	221.298	1317.085	-254.590	223.251	1313.829	-360.103	218.767	1312.213	-306.698	258.351	1242.602	-307.723	353.766	585.288	-216.773	233.927	559.247	-517.861	277.808	629.426	-167.879	168.822	607.800	-466.515	279.306	542.496	-161.146	183.155	522.563	-447.697	-47.447	269.232	-114.383	275.341	194.647	-332.785	-33.750	269.385	-155.324	234.974	191.116	-343.858	-80.170	89.282	-195.622	289.355	42.919	-364.048
	10	0.35833	171.974	825.767	-314.908	157.592	801.540	-241.057	159.533	810.307	-392.920	214.180	431.981	-194.961	193.142	431.583	-367.512	-65.404	196.122	-225.717	179.012	68.785	-334.662	246.026	882.883	-308.383	240.627	875.800	-190.169	251.425	889.966	-426.596	45.878	934.021	-281.272	45.456	933.160	-335.710	213.753	439.095	-137.400	203.713	428.700	-424.468	232.358	423.754	-252.385	205.544	446.186	-307.264	-79.890	208.717	-190.624	168.043	65.740	-373.008	-46.725	191.401	-255.502	190.172	78.394	-309.853	102.728	1379.597	-309.369	226.748	1317.379	-255.404	228.574	1314.494	-360.545	223.718	1312.483	-307.387	263.819	1243.124	-308.641	362.086	588.840	-218.298	236.634	559.036	-518.070	286.958	632.101	-169.758	171.510	608.517	-466.587	289.283	544.855	-162.025	185.136	522.394	-448.376	-34.825	269.819	-114.894	275.916	194.185	-332.945	-21.106	270.294	-155.976	235.333	190.837	-344.459	-65.855	90.282	-195.411	289.385	42.911	-363.908
